<?xml version="1.0" encoding="utf-8"?>
<!-- Generator: Adobe Illustrator 23.0.1, SVG Export Plug-In . SVG Version: 6.00 Build 0)  -->
<svg version="1.1" id="Layer_1" xmlns="http://www.w3.org/2000/svg" xmlns:xlink="http://www.w3.org/1999/xlink" x="0px" y="0px"
	 viewBox="0 0 64 64" style="enable-background:new 0 0 64 64;" xml:space="preserve">
<style type="text/css">
	.st0{fill:#42210B;}
	.st1{fill:#8C6239;}
	.st2{fill:#1A1A1A;}
	.st3{fill:#333333;}
	.st4{fill:#CCCCCC;}
	.st5{fill:#030005;}
	.st6{fill:#E6E6E6;}
	.st7{fill:#282634;}
	.st8{fill:#4D4D4D;}
	.st9{fill:#8D4224;}
	.st10{fill:#7C3218;}
	.st11{enable-background:new    ;}
	.st12{fill:#5D2219;}
	.st13{fill:#422F30;}
	.st14{fill:#604547;}
	.st15{fill:#070103;}
	.st16{fill:#F2F2F2;}
	.st17{fill:#FFFFFF;}
	.st18{fill:#66443B;}
	.st19{fill:#D0801F;}
	.st20{fill:#AE6B1A;}
	.st21{fill:#E09A2C;}
	.st22{fill:#D0D5DC;}
	.st23{fill:#99989B;}
	.st24{fill:#999999;}
	.st25{fill:#8A3A03;}
	.st26{fill:#F7931E;}
	.st27{fill:#F15A24;}
	.st28{fill:#C08F6C;}
	.st29{fill:#754C24;}
	.st30{fill:#D8A989;}
	.st31{fill:#FCEE21;}
	.st32{fill:#FF0000;}
	.st33{fill:#E0CC12;}
	.st34{fill-rule:evenodd;clip-rule:evenodd;}
	.st35{fill:none;stroke:#FFFFFF;stroke-miterlimit:10;}
	.st36{fill:#808080;}
	.st37{fill:#A67C52;}
	.st38{fill:#603813;}
	.st39{fill:none;stroke:#FF0000;stroke-miterlimit:10;}
	.st40{fill:#C69C6D;}
	.st41{fill:#B3B3B3;}
	.st42{fill:#FCFCFE;}
	.st43{fill:#009245;}
	.st44{fill:none;}
	.st45{opacity:0.2;fill:#1A1A1A;}
	.st46{fill:#666666;}
	.st47{fill:#FBB03B;}
	.st48{fill-rule:evenodd;clip-rule:evenodd;fill:#42210B;}
	.st49{fill:#351707;}
	.st50{opacity:0.1;}
	.st51{fill:#FFC86B;}
	.st52{fill:#2B2B2B;}
	.st53{fill:#EBECE6;}
	.st54{fill:#DBDBDB;}
	.st55{fill:#F2F1E7;}
	.st56{fill:#BEB3AD;}
	.st57{fill:#A29994;}
	.st58{fill:#241C17;}
	.st59{fill:#C39981;}
	.st60{fill:#605A56;}
	.st61{fill:#998675;}
	.st62{fill:#62574F;}
	.st63{fill:#352C33;}
	.st64{fill:#A59385;}
	.st65{fill:#645C53;}
	.st66{fill:#676059;}
	.st67{fill:#786658;}
	.st68{opacity:0.4;fill:#1A1A1A;}
	.st69{fill:#3A2A33;}
	.st70{opacity:0.4;fill-rule:evenodd;clip-rule:evenodd;fill:#1A1A1A;}
	.st71{opacity:0.4;}
	.st72{fill-rule:evenodd;clip-rule:evenodd;fill:#1A1A1A;}
	.st73{fill:#4B1200;}
	.st74{fill:#B67A3A;}
	.st75{fill:#BFA063;}
	.st76{fill:#4E1B09;}
	.st77{fill:none;stroke:#999999;stroke-miterlimit:10;}
	.st78{fill:#D9E021;}
	.st79{fill:#794C2E;}
	.st80{fill:#030600;}
	.st81{fill:#121212;}
	.st82{fill:#ED6A79;}
	.st83{fill:#7D6735;}
	.st84{clip-path:url(#SVGID_2_);}
	.st85{fill:#985404;}
	.st86{fill:#721D02;}
	.st87{fill:#403835;}
	.st88{fill:#BDB5B1;}
	.st89{fill:#C9CFC9;}
	.st90{fill:#B6BAB7;}
	.st91{fill:#060606;}
	.st92{fill:#FFCB4C;}
	.st93{fill:#F1EB36;}
	.st94{fill:#081840;}
	.st95{fill:#FFD029;}
	.st96{fill:#DF332E;}
	.st97{fill:#A60A0F;}
	.st98{fill:#E42423;}
	.st99{fill:#B66B1E;}
	.st100{fill:#344B5E;}
	.st101{fill:#2D3850;}
	.st102{fill:#A6ACB3;}
	.st103{fill:#D9B058;}
	.st104{fill:#AEB2B8;}
	.st105{fill:#30495D;}
	.st106{fill:#F4F4F4;}
	.st107{fill:#3D3C41;}
	.st108{fill:#0D0D0D;}
	.st109{fill:#DDAC4B;}
	.st110{fill:#FFCE5A;}
	.st111{fill:#F0F4FB;}
	.st112{fill:#414242;}
	.st113{fill:#C5CCCC;}
	.st114{fill:#0A0F10;}
	.st115{fill:#E9EBED;}
	.st116{fill:#B78F73;}
	.st117{fill:#4B3B10;}
	.st118{fill:#5D5B54;}
	.st119{fill:#5D3E32;}
	.st120{fill:#F9F9EF;}
	.st121{fill:#B5764E;}
	.st122{fill:#E4CDBD;}
	.st123{fill:#C1272D;}
	.st124{fill:#E7E7F2;}
	.st125{fill:#DDDDDD;}
	.st126{fill:#F2B651;}
	.st127{fill:#334960;}
	.st128{fill:#304B62;}
	.st129{fill:#A30717;}
	.st130{fill:#484B54;}
	.st131{fill:#B6C7D2;}
	.st132{fill:#AFBDC6;}
	.st133{fill:#A1826E;}
	.st134{fill:#CDC9C5;}
	.st135{fill:#304D60;}
	.st136{fill:#D1CDCB;}
	.st137{fill:#AAA694;}
	.st138{fill:#D8D5D4;}
	.st139{fill:#ADB0AE;}
	.st140{fill:#E1DCD9;}
	.st141{fill:#29ABE2;}
	.st142{fill:#0071BC;}
	.st143{fill:#ACB1B7;}
	.st144{fill:#ED1C24;}
	.st145{fill:#344D61;}
	.st146{fill:#89121B;}
	.st147{fill:#6D310E;}
	.st148{fill:#B46D31;}
	.st149{fill:#0D0B09;}
	.st150{fill:#080A09;}
	.st151{fill:#9A5C25;}
	.st152{fill:#B6611C;}
	.st153{fill:#6E811C;}
	.st154{fill:#006837;}
	.st155{fill:#39B54A;}
	.st156{fill:#FFF6E1;}
	.st157{fill:#2A3842;}
	.st158{fill:none;stroke:#FBB03B;stroke-miterlimit:10;}
	.st159{fill:#CFD3DD;}
	.st160{opacity:0.8;fill:#E7E7F2;}
	.st161{fill:#CFD6E0;}
	.st162{fill:#AAB1B9;}
	.st163{fill:#DB7A19;}
	.st164{fill:#323032;}
	.st165{fill:#9D5929;}
	.st166{fill:#F5B84E;}
	.st167{fill:#D7DAE0;}
	.st168{fill:#E7E9EE;}
	.st169{fill:#2D404F;}
	.st170{fill:#D88A23;}
	.st171{fill:#FDFEF7;}
	.st172{fill:#324A5E;}
	.st173{fill:#534741;}
	.st174{fill:#ED5B79;}
	.st175{fill:#ED657C;}
	.st176{fill:#047F73;}
	.st177{fill:#00A99D;}
	.st178{fill:#793930;}
	.st179{fill:#CDD3E2;}
	.st180{fill:#FFF8FE;}
	.st181{fill:#314B5E;}
	.st182{fill:#FFFFF3;}
	.st183{fill:#C1632D;}
	.st184{fill:#93451D;}
	.st185{fill:#E2F9FF;}
	.st186{fill:#ACB4BB;}
	.st187{fill:#CED3E2;}
	.st188{fill:#ED7779;}
	.st189{fill:#FAE2BD;}
	.st190{fill:#DBC9A1;}
	.st191{fill:#7B5225;}
	.st192{fill:none;stroke:#333333;stroke-miterlimit:10;}
	.st193{fill:#F4C995;}
	.st194{fill:#CB7627;}
	.st195{fill:#593411;}
	.st196{fill:#EBE0A2;}
	.st197{fill:#F26202;}
	.st198{fill:#E5D790;}
	.st199{fill:#000103;}
	.st200{fill:#273C48;}
	.st201{fill:#33465F;}
	.st202{fill:#EAEAEA;}
	.st203{fill:#A5A5A5;}
</style>
<g>
	<path class="st24" d="M51.15,47.96c0,1.99-1,3.84-2.73,5.43c-1.81,1.65-3.52,3.41-4.96,5.4C41.22,61.9,36.92,64,32,64
		c-4.93,0-9.22-2.1-11.47-5.21c-1.44-1.99-3.15-3.75-4.96-5.4c-1.73-1.59-2.73-3.44-2.73-5.43c0-2.13,1.15-4.12,3.13-5.77
		c3.67-3.08,5.54-7.73,5.51-12.52v-0.1c0-1.5,0.24-2.93,0.66-4.25c0-0.01,0-0.01,0-0.01c1.49-4.64,5.33-7.94,9.84-7.94
		c4.42,0,8.21,3.17,9.75,7.66c0.49,1.4,0.76,2.93,0.76,4.54v0.1c-0.03,4.8,1.84,9.44,5.51,12.52C50,43.85,51.15,45.83,51.15,47.96z"
		/>
	<g>
		<path class="st24" d="M34.33,20.93c0,0-0.55-5.13,2.62-8.62C40.11,8.83,49.6-1.1,50.04,0.1c0.44,1.2-1.53,3.38-0.87,7.96
			c0.65,4.58,1.2,12.44-10.04,15.16C27.89,25.95,34.33,20.93,34.33,20.93z"/>
		<path class="st6" d="M37.65,21.8c-0.01-1.06,0.14-3.74,1.78-5.55c1.89-2.08,4.22-4.53,6.33-6.63c0.02,0.19,0.05,0.39,0.07,0.59
			c0.67,4.7,0.64,9.44-7.5,11.42C38.1,21.7,37.87,21.75,37.65,21.8z"/>
		<path class="st24" d="M29.67,20.93c0,0,0.55-5.13-2.62-8.62C23.89,8.83,14.4-1.1,13.96,0.1c-0.44,1.2,1.53,3.38,0.87,7.96
			c-0.65,4.58-1.2,12.44,10.04,15.16C36.11,25.95,29.67,20.93,29.67,20.93z"/>
		<path class="st6" d="M25.66,21.64c-8.15-1.98-8.17-6.73-7.5-11.42c0.03-0.2,0.05-0.4,0.07-0.59c2.1,2.1,4.44,4.55,6.33,6.63
			c1.63,1.8,1.79,4.48,1.78,5.55C26.13,21.75,25.9,21.7,25.66,21.64z"/>
	</g>
	<g>
		<circle class="st41" cx="38.16" cy="55.3" r="6.22"/>
		<circle class="st41" cx="25.83" cy="55.3" r="6.22"/>
	</g>
	<g>
		<path class="st41" d="M41.75,25.03c-0.16,0.86-0.44,1.67-0.81,2.43c-3.69,7.64-6.01,15.86-6.01,24.34v8.76h-5.88v-7.4
			c0-8.98-2.42-17.68-6.22-25.81c-0.29-0.64-0.53-1.32-0.69-2.02c0-0.01,0-0.01,0-0.01c1.49-4.64,5.33-7.94,9.84-7.94
			C36.42,17.37,40.21,20.54,41.75,25.03z"/>
	</g>
	<g>
		<path class="st3" d="M24.91,36.41c0,1.5-0.77,2.72-1.73,2.72c-0.96,0-1.73-1.22-1.73-2.72c0-1.5,0.77-2.72,1.73-2.72
			C24.14,33.69,24.91,34.9,24.91,36.41z"/>
		<ellipse class="st4" cx="23.83" cy="36.41" rx="0.65" ry="1.01"/>
	</g>
	<g>
		<path class="st3" d="M38.88,36.41c0,1.5,0.77,2.72,1.73,2.72c0.96,0,1.73-1.22,1.73-2.72c0-1.5-0.77-2.72-1.73-2.72
			C39.65,33.69,38.88,34.9,38.88,36.41z"/>
		<path class="st4" d="M39.32,36.41c0,0.56,0.29,1.01,0.65,1.01c0.36,0,0.65-0.45,0.65-1.01s-0.29-1.01-0.65-1.01
			C39.61,35.39,39.32,35.85,39.32,36.41z"/>
	</g>
	<path class="st3" d="M35.71,51.94c0,1.63-1.61,5.23-3.59,5.23s-3.59-3.6-3.59-5.23c0-1.63,1.61-1.8,3.59-1.8
		S35.71,50.32,35.71,51.94z"/>
</g>
</svg>
